<svg width="133" height="36" viewBox="0 0 133 36" xmlns="http://www.w3.org/2000/svg"><defs><clipPath id="satori_bc-id"><path x="0" y="0" width="133" height="32" d="M8,0 h117 a8,8 0 0 1 8,8 v16 a8,8 0 0 1 -8,8 h-117 a8,8 0 0 1 -8,-8 v-16 a8,8 0 0 1 8,-8"/></clipPath></defs><path x="0" y="0" width="133" height="32" fill="#0E1525" d="M8,0 h117 a8,8 0 0 1 8,8 v16 a8,8 0 0 1 -8,8 h-117 a8,8 0 0 1 -8,-8 v-16 a8,8 0 0 1 8,-8"/><path width="133" height="32" clip-path="url(#satori_bc-id)" fill="none" stroke="#1C2333" stroke-width="2" d="M2.343,2.343 A8,8 0 0 1 8,0 h117 a8,8 0 0 1 8,8 v16 a8,8 0 0 1 -8,8 h-117 a8,8 0 0 1 -8,-8 v-16 A8,8 0 0 1 2.343,2.343"/><clipPath id="satori_cp-id-0"><rect x="13" y="9" width="13" height="15"/></clipPath><mask id="satori_om-id-0"><rect x="13" y="9" width="13" height="15" fill="#fff"/></mask><image x="13" y="9" width="13" height="15" href="data:image/svg+xml;utf8,%3Csvg  preserveAspectRatio=%22none%22 xmlns=%22http://www.w3.org/2000/svg%22 width=%2213.23529411764706%22 height=%2215%22 viewBox=%220 0 15 17%22%3E%3Cpath d=%22M0 1.0625C0 0.475697 0.50368 0 1.125 0H6.375C6.99632 0 7.5 0.475697 7.5 1.0625V5.66667H1.125C0.50368 5.66667 0 5.19097 0 4.60417V1.0625Z%22 fill=%22%23F26207%22%3E%3C/path%3E%3Cpath d=%22M7.5 5.66667H13.875C14.4963 5.66667 15 6.14236 15 6.72917V10.2708C15 10.8576 14.4963 11.3333 13.875 11.3333H7.5V5.66667Z%22 fill=%22%23F26207%22%3E%3C/path%3E%3Cpath d=%22M0 12.3958C0 11.809 0.50368 11.3333 1.125 11.3333H7.5V15.9375C7.5 16.5243 6.99632 17 6.375 17H1.125C0.50368 17 0 16.5243 0 15.9375V12.3958Z%22 fill=%22%23F26207%22%3E%3C/path%3E%3C/svg%3E" preserveAspectRatio="none" transform="matrix(1.00,0.00,0.00,1.00,0.00,-1.00)" clip-path="url(#satori_cp-id-0)" mask="url(#satori_om-id-0)"/><path fill="#F5F9FC" d="M36.8 18.7L36.8 22.6L35.2 22.6L35.2 12.8L39.4 12.8Q40.7 12.8 41.5 13.6Q42.2 14.4 42.2 15.8L42.2 15.8Q42.2 16.8 41.8 17.5Q41.3 18.2 40.3 18.5L40.3 18.5L42.5 22.6L40.7 22.6L38.7 18.7L36.8 18.7ZM36.8 17.3L39.3 17.3Q39.9 17.3 40.2 17.0Q40.6 16.7 40.6 16.1L40.6 16.1L40.6 15.4Q40.6 14.8 40.2 14.5Q39.9 14.2 39.3 14.2L39.3 14.2L36.8 14.2L36.8 17.3ZM48.7 22.6L48.7 21.4L48.6 21.4Q48.5 21.7 48.4 21.9Q48.2 22.2 48.0 22.4Q47.7 22.5 47.4 22.7Q47.0 22.8 46.6 22.8L46.6 22.8Q45.4 22.8 44.8 22.0Q44.2 21.3 44.2 20.0L44.2 20.0L44.2 15.3L45.7 15.3L45.7 19.8Q45.7 21.5 47.1 21.5L47.1 21.5Q47.4 21.5 47.7 21.4Q48.0 21.3 48.2 21.1Q48.4 21.0 48.5 20.8Q48.7 20.5 48.7 20.2L48.7 20.2L48.7 15.3L50.2 15.3L50.2 22.6L48.7 22.6ZM53.9 22.6L52.4 22.6L52.4 15.3L53.9 15.3L53.9 16.5L54.0 16.5Q54.2 15.9 54.7 15.5Q55.2 15.2 56.0 15.2L56.0 15.2Q57.1 15.2 57.8 15.9Q58.4 16.6 58.4 18.0L58.4 18.0L58.4 22.6L56.9 22.6L56.9 18.2Q56.9 16.5 55.5 16.5L55.5 16.5Q55.2 16.5 54.9 16.5Q54.6 16.6 54.4 16.8Q54.2 16.9 54.0 17.2Q53.9 17.4 53.9 17.7L53.9 17.7L53.9 22.6Z M66.7 22.8L66.7 22.8Q65.9 22.8 65.3 22.5Q64.7 22.2 64.2 21.7Q63.8 21.2 63.6 20.5Q63.3 19.8 63.3 19.0L63.3 19.0Q63.3 18.1 63.6 17.4Q63.8 16.7 64.2 16.2Q64.7 15.7 65.3 15.4Q65.9 15.2 66.7 15.2L66.7 15.2Q67.4 15.2 68.0 15.4Q68.7 15.7 69.1 16.2Q69.5 16.7 69.8 17.4Q70.0 18.1 70.0 19.0L70.0 19.0Q70.0 19.8 69.8 20.5Q69.5 21.2 69.1 21.7Q68.7 22.2 68.0 22.5Q67.4 22.8 66.7 22.8ZM66.7 21.5L66.7 21.5Q67.4 21.5 67.9 21.0Q68.4 20.5 68.4 19.6L68.4 19.6L68.4 18.3Q68.4 17.4 67.9 16.9Q67.4 16.4 66.7 16.4L66.7 16.4Q65.9 16.4 65.4 16.9Q64.9 17.4 64.9 18.3L64.9 18.3L64.9 19.6Q64.9 20.5 65.4 21.0Q65.9 21.5 66.7 21.5ZM73.2 22.6L71.7 22.6L71.7 15.3L73.2 15.3L73.2 16.5L73.3 16.5Q73.5 15.9 74.0 15.5Q74.5 15.2 75.3 15.2L75.3 15.2Q76.5 15.2 77.1 15.9Q77.7 16.6 77.7 18.0L77.7 18.0L77.7 22.6L76.2 22.6L76.2 18.2Q76.2 16.5 74.8 16.5L74.8 16.5Q74.5 16.5 74.2 16.5Q73.9 16.6 73.7 16.8Q73.5 16.9 73.4 17.2Q73.2 17.4 73.2 17.7L73.2 17.7L73.2 22.6Z M84.8 18.7L84.8 22.6L83.2 22.6L83.2 12.8L87.5 12.8Q88.8 12.8 89.5 13.6Q90.3 14.4 90.3 15.8L90.3 15.8Q90.3 16.8 89.8 17.5Q89.3 18.2 88.4 18.5L88.4 18.5L90.5 22.6L88.7 22.6L86.8 18.7L84.8 18.7ZM84.8 17.3L87.3 17.3Q87.9 17.3 88.3 17.0Q88.6 16.7 88.6 16.1L88.6 16.1L88.6 15.4Q88.6 14.8 88.3 14.5Q87.9 14.2 87.3 14.2L87.3 14.2L84.8 14.2L84.8 17.3ZM94.9 22.8L94.9 22.8Q94.2 22.8 93.5 22.5Q92.9 22.2 92.5 21.7Q92.1 21.2 91.8 20.5Q91.6 19.8 91.6 19.0L91.6 19.0Q91.6 18.1 91.8 17.4Q92.1 16.7 92.5 16.2Q92.9 15.7 93.5 15.4Q94.2 15.2 94.9 15.2L94.9 15.2Q95.7 15.2 96.3 15.4Q97.0 15.7 97.4 16.2Q97.8 16.7 98.0 17.4Q98.2 18.0 98.2 18.8L98.2 18.8L98.2 19.4L93.2 19.4L93.2 19.6Q93.2 20.4 93.7 21.0Q94.2 21.5 95.1 21.5L95.1 21.5Q95.8 21.5 96.2 21.2Q96.7 20.9 97.0 20.4L97.0 20.4L97.9 21.3Q97.5 22.0 96.7 22.4Q96.0 22.8 94.9 22.8ZM94.9 16.3L94.9 16.3Q94.5 16.3 94.2 16.5Q93.9 16.6 93.7 16.9Q93.4 17.1 93.3 17.5Q93.2 17.8 93.2 18.2L93.2 18.2L93.2 18.3L96.6 18.3L96.6 18.2Q96.6 17.4 96.1 16.9Q95.7 16.3 94.9 16.3ZM99.9 25.4L99.9 15.3L101.4 15.3L101.4 16.5L101.5 16.5Q101.7 15.9 102.2 15.5Q102.8 15.2 103.5 15.2L103.5 15.2Q104.9 15.2 105.7 16.2Q106.4 17.2 106.4 19.0L106.4 19.0Q106.4 20.8 105.7 21.8Q104.9 22.8 103.5 22.8L103.5 22.8Q102.8 22.8 102.2 22.4Q101.7 22.0 101.5 21.4L101.5 21.4L101.4 21.4L101.4 25.4L99.9 25.4ZM103.0 21.5L103.0 21.5Q103.8 21.5 104.3 20.9Q104.8 20.4 104.8 19.6L104.8 19.6L104.8 18.3Q104.8 17.5 104.3 17.0Q103.8 16.5 103.0 16.5L103.0 16.5Q102.3 16.5 101.9 16.8Q101.4 17.2 101.4 17.7L101.4 17.7L101.4 20.2Q101.4 20.8 101.9 21.1Q102.3 21.5 103.0 21.5ZM110.7 22.6L109.7 22.6Q108.9 22.6 108.5 22.2Q108.2 21.8 108.2 21.1L108.2 21.1L108.2 12.2L109.7 12.2L109.7 21.4L110.7 21.4L110.7 22.6ZM112.9 14.0L112.9 14.0Q112.4 14.0 112.2 13.8Q112.0 13.6 112.0 13.2L112.0 13.2L112.0 13.0Q112.0 12.6 112.2 12.4Q112.4 12.2 112.9 12.2L112.9 12.2Q113.4 12.2 113.6 12.4Q113.8 12.6 113.8 13.0L113.8 13.0L113.8 13.2Q113.8 13.6 113.6 13.8Q113.4 14.0 112.9 14.0ZM112.1 22.6L112.1 15.3L113.7 15.3L113.7 22.6L112.1 22.6ZM119.2 22.6L117.9 22.6Q117.1 22.6 116.7 22.2Q116.3 21.8 116.3 21.0L116.3 21.0L116.3 16.6L115.1 16.6L115.1 15.3L115.7 15.3Q116.1 15.3 116.3 15.2Q116.4 15.0 116.4 14.6L116.4 14.6L116.4 13.3L117.8 13.3L117.8 15.3L119.3 15.3L119.3 16.6L117.8 16.6L117.8 21.4L119.2 21.4L119.2 22.6Z " transform="matrix(1.00,0.00,0.00,1.00,0.00,-2.50)"/></svg>